<?xml version="1.0" encoding="utf-8"?>
<!-- Generator: Adobe Illustrator 26.4.1, SVG Export Plug-In . SVG Version: 6.00 Build 0)  -->
<svg version="1.1" id="Layer_1" xmlns="http://www.w3.org/2000/svg" xmlns:xlink="http://www.w3.org/1999/xlink" x="0px" y="0px"
	 viewBox="0 0 20 13.3" style="enable-background:new 0 0 20 13.3;" xml:space="preserve">
<style type="text/css">
	.st0{fill:#D3D1A3;}
</style>
<g>
	<path class="st0" d="M15.5,10.5c0,0.1,0,0.1,0,0.1c0,0.6,0,1.2,0,1.8c0,0.4-0.2,0.7-0.7,0.7c-3.4,0-6.9,0-10.3,0
		c-0.6,0-1.1-0.4-1.2-0.9c0-0.1,0-0.2,0-0.3c0-3,0-5.9,0-8.9c0,0,0-0.1,0-0.1c0,0,0,0.1,0,0.1c0.2,0.5,0.6,0.8,1.1,0.8
		c0.1,0,0.1,0,0.2,0c3.4,0,6.8,0,10.2,0c0.2,0,0.4,0,0.5,0.2c0.1,0.1,0.2,0.3,0.2,0.4c0,0.7,0,1.3,0,2c0,0,0,0,0,0.1
		c-0.1,0-0.1,0-0.2,0c-0.6,0-1.2,0-1.9,0c-1,0-1.8,0.7-2,1.6c-0.3,1.3,0.7,2.4,2,2.5c0.6,0,1.2,0,1.9,0
		C15.4,10.5,15.5,10.5,15.5,10.5z"/>
	<path class="st0" d="M14.7,9.9c-0.4,0-0.8,0-1.3,0c-0.7,0-1.2-0.4-1.4-1c-0.2-0.6,0-1.2,0.5-1.6C12.9,7.1,13.1,7,13.4,7
		c0.6,0,1.2,0,1.9,0c0.3,0,0.5,0,0.8,0c0.4,0,0.6,0.2,0.6,0.6c0,0.6,0,1.1,0,1.7c0,0.4-0.2,0.6-0.6,0.6C15.6,9.9,15.2,9.9,14.7,9.9z
		 M13.8,8.4c0-0.2-0.1-0.3-0.3-0.3c-0.1,0-0.3,0.1-0.3,0.2c0,0.2,0.1,0.3,0.3,0.3C13.6,8.7,13.8,8.6,13.8,8.4z"/>
	<path class="st0" d="M5.6,3.2c1.7-1,3.4-1.9,5.1-2.9c0.2,0.4,0.4,0.8,0.7,1.2c0,0-0.1,0-0.1,0.1c-1,0.6-1.9,1.1-2.9,1.7
		c0,0-0.1,0-0.1,0C7.3,3.2,6.4,3.2,5.6,3.2C5.6,3.2,5.6,3.2,5.6,3.2z"/>
	<path class="st0" d="M14.2,3.2c-1.6,0-3.2,0-4.8,0c1.2-0.7,2.4-1.4,3.6-2.1C13.4,1.8,13.8,2.5,14.2,3.2z"/>
	<path class="st0" d="M7.3,1.5C6.9,1.7,6.5,1.9,6.1,2.2c-0.5,0.3-1,0.6-1.5,0.9c-0.1,0-0.1,0-0.2,0C4,2.9,3.8,2.5,3.9,2.1
		C4,1.8,4.3,1.5,4.7,1.4C5.6,1.4,6.4,1.4,7.3,1.5C7.3,1.5,7.3,1.5,7.3,1.5z"/>
</g>
</svg>
