<?xml version="1.0" encoding="utf-8"?>
<!-- Generator: Adobe Illustrator 26.3.1, SVG Export Plug-In . SVG Version: 6.00 Build 0)  -->
<svg version="1.1" id="Layer_1" xmlns="http://www.w3.org/2000/svg" xmlns:xlink="http://www.w3.org/1999/xlink" x="0px" y="0px"
	 viewBox="0 0 27.8 37.5" style="enable-background:new 0 0 27.8 37.5;" xml:space="preserve">
<style type="text/css">
	.st0{fill:#E6E7E8;}
	.st1{fill:#FFFFFF;}
	.st2{fill:#F6F6F6;}
</style>
<g>
	<path class="st0" d="M8.5,9.1C8,9.1,7.7,9.4,7.4,9.6C7,9.8,6.6,10.1,6.3,10.4c0,0,0-0.1-0.1-0.1C7,9.4,7.9,8.7,8.9,8.2
		C9.1,8.1,9.2,8,9,7.8C8.9,7.6,8.7,7.3,8.7,7C8.6,6.2,9,5.6,9.8,5.2C10.4,4.9,11,4.8,11.6,5c0.1,0,0.2,0,0.2-0.1
		c1.1-1.4,3.2-1.3,4.1,0.2c0.1,0.2,0.2,0.2,0.4,0.1c1.2-0.5,2.5,0.5,2.4,1.8c0,0.5-0.3,0.9-0.7,1.1c-0.8,0.5-1.6,0.5-2.5,0.3
		c-1.1-0.2-2.2-0.4-3.4-0.3c-0.8,0-1.6,0.2-2.4,0.5C9.5,8.7,9.3,8.7,9,8.8C8.8,8.8,8.6,8.9,8.5,9.1z M16.4,7.9c0.5,0,1-0.2,1.3-0.4
		C17.9,7.3,18,7.2,18,6.9c0-0.9-0.7-1.4-1.5-1.1c-0.2,0.1-0.3,0.1-0.2,0.3c0.1,0.4,0,0.8-0.2,1.1c-0.3,0.3-0.7,0.3-1.1,0
		c-0.3-0.2-0.3-0.5,0-0.9c0-0.2,0.2-0.3,0.4-0.5c0.1-0.1,0.2-0.2,0.1-0.4c-0.6-1.3-2.2-1.1-2.9-0.4c-0.2,0.2-0.2,0.3,0,0.4
		c0.3,0.3,0.6,0.6,0.7,1.1c0.1,0.6-0.3,0.9-0.9,0.8c-0.8-0.2-1.1-0.7-0.9-1.5c0.1-0.2,0-0.3-0.2-0.3c-0.5,0-1,0.1-1.5,0.3
		C9.2,6.1,8.9,6.6,9.1,7.3c0,0.2,0.2,0.4,0.2,0.6C9.3,8,9.4,8,9.6,8c1.5-0.5,3-0.6,4.5-0.3C14.9,7.7,15.6,7.9,16.4,7.9z M12,6.2
		c0,0.3,0.1,0.5,0.4,0.5c0.1,0,0.2,0,0.1-0.2c-0.1-0.2-0.2-0.4-0.4-0.6c0-0.1,0,0-0.1,0.1C12,6.1,12,6.1,12,6.2z M15.7,6.4
		c-0.2,0.1-0.3,0.2-0.3,0.4c0,0.1,0.1,0.1,0.2,0.1C15.7,6.7,15.7,6.6,15.7,6.4z"/>
	<path class="st1" d="M8.5,9.1C8.6,8.9,8.8,8.8,9,8.8c0.1,0.1,0.2,0,0.3,0c2.9,0,5.7,0,8.6,0c0.5,0,0.7,0.1,0.8,0.6
		c0.2,0.5,0.2,0.9,0.3,1.4c0,0.2,0,0.2-0.2,0.2c-0.3,0-0.6,0-0.9,0c-0.2,0-0.2,0-0.2,0.2c-0.1,1.3-0.2,2.6-0.4,3.9
		c-0.1,1.3-0.2,2.6-0.4,4c-0.1,1.5-0.3,3.1-0.4,4.6c-0.1,0.7-0.1,1.4-0.2,2.1c0,0.1-0.1,0.2-0.2,0.2c-1.9,0.7-3.8,0.7-5.7-0.1
		c-0.2-0.1-0.3-0.2-0.3-0.4c-0.1-1.9-0.3-3.8-0.4-5.7c-0.1-1.4-0.2-2.8-0.3-4.1c-0.1-1.5-0.2-3-0.3-4.5C9.1,11,9,11,8.9,11
		c-0.3,0-0.5,0-0.8,0c-0.2,0-0.2,0-0.3-0.2C7.7,10.1,8,9.6,8.5,9.1z M13.5,11c-1.3,0-2.5,0-3.8,0c-0.2,0-0.2,0-0.2,0.2
		c0.1,1,0.2,2.1,0.2,3.1c0.2,2.4,0.4,4.7,0.5,7.1c0.1,1.3,0.2,2.6,0.3,3.9c0,0.2,0.1,0.3,0.3,0.4c1.7,0.7,3.3,0.7,5,0.1
		c0.2-0.1,0.2-0.1,0.3-0.3c0.2-1.9,0.4-3.8,0.5-5.7c0.3-2.8,0.5-5.7,0.8-8.5c0-0.2-0.1-0.3-0.3-0.3C15.9,11,14.7,11,13.5,11z
		 M13.5,10.7L13.5,10.7c1.7,0,3.3,0,5,0c0.3,0,0.3-0.1,0.3-0.3c-0.1-0.3-0.1-0.6-0.2-0.9c-0.1-0.3-0.2-0.4-0.5-0.3
		c-2.8,0-5.7,0-8.5,0c-0.7,0-1.3,0.5-1.3,1.3c0,0.2,0.1,0.3,0.3,0.3C10.1,10.7,11.8,10.7,13.5,10.7z"/>
	<path class="st1" d="M0.3,30.5c0-0.8,0-1.5,0-2.3c0-0.2,0.1-0.3,0.3-0.3c0.5,0,1.1,0,1.6,0c1.1,0,2,0.9,2,1.9
		c0,1.1-0.9,1.9-1.9,1.9c-0.4,0-0.8,0-1.2,0c-0.2,0-0.2,0-0.2,0.2c0,0.3,0,0.6,0,0.9C0.9,33,0.8,33,0.6,33c-0.1,0-0.3,0-0.3-0.2
		C0.3,32.1,0.3,31.3,0.3,30.5L0.3,30.5z M0.8,29.9c0,0.4,0,0.8,0,1.2c0,0.2,0,0.2,0.2,0.2c0.4,0,0.8,0,1.2,0c0.8,0,1.4-0.7,1.4-1.5
		s-0.7-1.4-1.5-1.4c-0.4,0-0.8,0-1.2,0c-0.2,0-0.2,0.1-0.2,0.2C0.9,29,0.8,29.5,0.8,29.9z"/>
	<path class="st1" d="M19.5,27.9c0.6,0,1.2,0.3,1.6,0.7c0.1,0.1,0.2,0.2,0.1,0.3c-0.1,0.1-0.2,0.2-0.4,0c-0.7-0.6-1.6-0.7-2.4-0.3
		c-0.8,0.4-1.2,1.2-1.1,2.2c0.1,0.8,0.8,1.6,1.6,1.8c0.7,0.2,1.4,0,1.9-0.5c0.2-0.2,0.2-0.1,0.4,0c0.2,0.2,0,0.3-0.1,0.4
		c-0.9,0.8-2.2,0.9-3.2,0.2s-1.4-1.9-1-3C17.3,28.6,18.3,27.9,19.5,27.9z"/>
	<path class="st1" d="M26.5,32.3c0,0.3,0,0.7,0,1c0,0.2,0,0.3-0.2,0.3c-0.3,0-0.3-0.1-0.3-0.3c0-0.7,0-1.4,0-2.1
		c0-0.1,0-0.3-0.2-0.3c-0.1,0-0.1-0.1-0.1-0.2s0-0.2,0.1-0.2c0.2,0,0.2-0.1,0.2-0.3c0-0.5,0-1.1,0-1.6c0-0.4,0.3-0.7,0.8-0.7
		c0.4,0,0.7,0.3,0.7,0.8c0,0.1,0,0.2-0.2,0.2c-0.1,0-0.3,0.1-0.3-0.1s-0.1-0.4-0.3-0.3c-0.2,0-0.2,0.2-0.2,0.4c0,0.5,0,1,0,1.5
		c0,0.2,0.1,0.3,0.3,0.2c0.2,0,0.4,0,0.6,0s0.2,0.1,0.2,0.2s0,0.3-0.2,0.3h-0.1c-0.2,0-0.6-0.1-0.7,0.1c-0.2,0.2,0,0.5,0,0.7
		C26.5,32,26.5,32.1,26.5,32.3z"/>
	<path class="st1" d="M22.1,29.3c0,0.4,0,0.8,0,1.2c0,0.2,0,0.2,0.2,0.2c0.6-0.2,1,0.1,1,0.8c0,0.3,0,0.6,0,0.9
		c0,0.2-0.1,0.2-0.2,0.2s-0.3,0-0.3-0.2c0-0.3,0-0.6,0-1c0-0.2,0-0.4-0.3-0.4S22,31.1,22,31.4s0,0.6,0,0.9c0,0.2-0.1,0.2-0.3,0.2
		c-0.2,0-0.2,0-0.2-0.2s0-0.3,0-0.5s0-0.3-0.1-0.5c-0.1-0.1-0.2-0.3,0.1-0.4c0.1,0,0.1-0.2,0.1-0.3c0-0.8,0-1.6,0-2.4
		c0-0.2,0-0.3,0.2-0.3S22,28,22,28.2C22.1,28.5,22.1,28.9,22.1,29.3z"/>
	<path class="st1" d="M11.2,32.5c-0.5,0-1-0.4-1-1c0-0.5,0.5-1,1-1s1,0.5,1,1c0,0.2-0.1,0.5-0.3,0.7S11.4,32.5,11.2,32.5z
		 M11.6,31.3c-0.3-0.4-0.7-0.4-0.9,0C11,31.3,11.3,31.3,11.6,31.3z M11.6,31.7c-0.2,0-0.4,0-0.6,0h-0.1c-0.1,0-0.1,0-0.1,0.1
		s0.1,0.1,0.1,0.1C11.1,32.1,11.4,32,11.6,31.7z"/>
	<path class="st1" d="M24.7,32.5c-0.6,0-1.1-0.4-1.1-1c0-0.6,0.4-1,1-1c0.5,0,1,0.4,1,1c0,0.2-0.1,0.5-0.3,0.7
		C25.2,32.4,24.9,32.5,24.7,32.5z M25.1,31.3c-0.2-0.3-0.6-0.4-0.8-0.2c0,0-0.1,0.1,0,0.1h0.1C24.6,31.3,24.8,31.3,25.1,31.3z
		 M25.1,31.7c-0.2,0-0.4,0-0.6,0c-0.1,0-0.3-0.1-0.3,0.1c0,0.1,0.2,0.2,0.3,0.2C24.8,32,25,32,25.1,31.7z"/>
	<path class="st1" d="M9.2,29.9c0,0.6,0,0.6,0.6,0.6c0.2,0,0.3,0,0.3,0.2C10.1,31,10,31,9.8,31c-0.6,0-0.6,0-0.6,0.6
		c0,0.1-0.1,0.3,0.1,0.4c0.2,0.1,0.3,0,0.4-0.2c0.1-0.2,0.2-0.1,0.3,0c0.2,0.1,0.1,0.2,0,0.3c-0.2,0.2-0.4,0.3-0.7,0.3
		c-0.4,0-0.6-0.2-0.6-0.6c0-0.2,0-0.4,0-0.7c0-0.2,0-0.2-0.2-0.2s-0.2-0.1-0.2-0.2c0-0.2,0.1-0.2,0.2-0.2c0.2,0,0.2-0.1,0.2-0.2
		c0-0.3,0-0.5,0-0.8c0-0.2,0.1-0.2,0.3-0.2c0.1,0,0.2,0,0.2,0.2C9.2,29.6,9.2,29.8,9.2,29.9z"/>
	<path class="st1" d="M6.3,31.5c0-0.6,0.4-1,1-1c0.5,0,1,0.5,1,1s-0.5,1-1,1C6.7,32.5,6.3,32,6.3,31.5z M7.2,32
		c0.3,0,0.5-0.2,0.6-0.5c0-0.3-0.2-0.5-0.5-0.5s-0.5,0.2-0.6,0.5C6.7,31.7,7,32,7.2,32z"/>
	<path class="st1" d="M5.6,31.1c-0.3,0-0.4,0.1-0.4,0.4c0,0.2,0,0.5,0,0.7s0,0.3-0.3,0.3c-0.2,0-0.2-0.1-0.2-0.3c0-0.4,0-0.7,0-1.1
		l0,0c-0.1,0-0.2,0.3-0.4,0.1c-0.2-0.2-0.2-0.2,0-0.4c0.3-0.2,0.5-0.3,0.8-0.1c0.1,0.1,0.2,0,0.3,0c0.1-0.1,0.3-0.1,0.4-0.1
		c0.2,0,0.3,0.1,0.4,0.3c0.1,0.2,0,0.4-0.1,0.6c-0.2,0.3-0.2,0.2-0.5,0C5.4,31.3,5.6,31.2,5.6,31.1z"/>
	<path class="st1" d="M13.5,31.5c0-0.2,0-0.4,0-0.7c0-0.3,0.1-0.3,0.3-0.3s0.3,0,0.5,0c0.4-0.1,0.8,0.2,0.8,0.7c0,0.4,0,0.7,0,1.1
		c0,0.2-0.1,0.2-0.2,0.2c-0.2,0-0.2,0-0.2-0.2c0-0.3,0-0.6,0-1c0-0.2-0.1-0.3-0.3-0.3s-0.5,0.2-0.5,0.3c0,0.3,0,0.6,0,1
		c0,0.2-0.1,0.2-0.2,0.2c-0.2,0-0.2,0-0.2-0.2C13.5,32,13.5,31.7,13.5,31.5z"/>
	<path class="st1" d="M12.5,31.5c0-0.2,0-0.5,0-0.7s0.1-0.2,0.2-0.2c0.1,0,0.2,0,0.2,0.2c0,0.5,0,1.1,0,1.6c0,0.2-0.1,0.2-0.3,0.2
		c-0.1,0-0.2,0-0.2-0.2C12.5,32,12.5,31.7,12.5,31.5z"/>
	<path class="st1" d="M13.1,29.8c0,0.2-0.1,0.3-0.3,0.3s-0.4-0.1-0.3-0.3c0-0.2,0.1-0.3,0.3-0.3C12.9,29.4,13.1,29.6,13.1,29.8z"/>
	<path class="st1" d="M6.3,10.4c-0.1,0.1-0.2,0.2-0.3,0.3C6,10.5,6.1,10.4,6.3,10.4C6.2,10.4,6.2,10.4,6.3,10.4z"/>
	<path class="st2" d="M6.3,10.4C6.2,10.4,6.2,10.4,6.3,10.4c-0.1-0.1-0.1-0.1,0-0.1C6.3,10.3,6.3,10.4,6.3,10.4L6.3,10.4z"/>
	<path class="st1" d="M5.9,10.8L5.9,10.8L5.9,10.8L5.9,10.8L5.9,10.8z"/>
	<path class="st1" d="M5.9,10.8L5.9,10.8C5.9,10.8,5.8,10.8,5.9,10.8C5.8,10.8,5.9,10.8,5.9,10.8L5.9,10.8z"/>
	<path class="st0" d="M12.4,25c0.3,0,0.5,0,0.8,0c0.1,0,0.2,0,0.2,0.2c0,0.1-0.1,0.2-0.2,0.2c-0.5,0-1.1,0-1.6,0
		c-0.1,0-0.2,0-0.2-0.1s0-0.2,0.2-0.2C11.8,25,12.1,25,12.4,25z"/>
	<path class="st0" d="M12.6,12.1c0.3,0,0.7,0,1,0c0.1,0,0.2,0,0.2,0.1s0,0.2-0.2,0.2c-0.7,0-1.3,0-2,0c-0.1,0-0.2,0-0.2-0.2
		c0-0.1,0.1-0.2,0.2-0.2C11.9,12.1,12.3,12.1,12.6,12.1L12.6,12.1z"/>
	<path class="st0" d="M12.5,19.1c-0.3,0-0.6,0-1,0c-0.1,0-0.2,0-0.2-0.2c0-0.1,0-0.1,0.2-0.1c0.6,0,1.3,0,1.9,0c0.1,0,0.1,0,0.1,0.2
		c0,0.1,0,0.2-0.2,0.2C13.1,19.1,12.8,19.1,12.5,19.1z"/>
	<path class="st0" d="M12.1,23.7c-0.2,0-0.4,0-0.5,0s-0.2,0-0.2-0.2c0-0.1,0-0.2,0.2-0.2c0.4,0,0.7,0,1.1,0c0.1,0,0.2,0,0.2,0.2
		c0,0.1,0,0.1-0.2,0.1C12.5,23.7,12.3,23.7,12.1,23.7z"/>
	<path class="st0" d="M12,14c-0.1,0-0.3,0-0.4,0c-0.1,0-0.2,0-0.2-0.1s0.1-0.2,0.2-0.2c0.3,0,0.6,0,0.8,0c0.1,0,0.2,0,0.2,0.2
		S12.5,14,12.4,14C12.3,14,12.2,14,12,14z"/>
	<path class="st0" d="M12,21.8c0.1,0,0.3,0,0.4,0c0.1,0,0.2,0,0.2,0.2c0,0.1,0,0.2-0.2,0.2c-0.3,0-0.6,0-0.8,0c-0.1,0-0.2,0-0.2-0.2
		c0-0.1,0-0.2,0.2-0.2C11.7,21.8,11.9,21.8,12,21.8z"/>
	<path class="st0" d="M12,20.6c-0.1,0-0.3,0-0.4,0c-0.1,0-0.2,0-0.2-0.2c0-0.1,0-0.2,0.2-0.2c0.3,0,0.6,0,0.8,0
		c0.1,0,0.2,0.1,0.2,0.2s0,0.2-0.1,0.2C12.3,20.6,12.1,20.6,12,20.6z"/>
	<path class="st0" d="M12,15.8c-0.1,0-0.3,0-0.4,0c-0.1,0-0.2,0-0.2-0.2c0-0.1,0.1-0.2,0.2-0.2c0.3,0,0.6,0,0.9,0
		c0.1,0,0.2,0,0.2,0.2c0,0.1-0.1,0.2-0.2,0.2C12.3,15.8,12.2,15.8,12,15.8z"/>
	<path class="st0" d="M12,17.1c0.1,0,0.3,0,0.4,0c0.1,0,0.2,0,0.2,0.2c0,0.1,0,0.2-0.2,0.2c-0.3,0-0.6,0-0.9,0c-0.1,0-0.2,0-0.2-0.2
		c0-0.1,0-0.2,0.2-0.2S11.9,17.1,12,17.1z"/>
</g>
</svg>
